<?xml version="1.0" standalone="no"?>
<!DOCTYPE svg PUBLIC "-//W3C//DTD SVG 20010904//EN"
 "http://www.w3.org/TR/2001/REC-SVG-20010904/DTD/svg10.dtd">
<svg version="1.0" xmlns="http://www.w3.org/2000/svg"
 width="752.000000pt" height="752.000000pt" viewBox="0 0 752.000000 752.000000"
 preserveAspectRatio="xMidYMid meet">
<metadata>
Created by potrace 1.14, written by Peter Selinger 2001-2017
</metadata>
<g transform="translate(0.000000,752.000000) scale(0.100000,-0.100000)"
fill="#000000" stroke="none">
<path d="M3660 7014 c-25 -14 -53 -34 -63 -46 -25 -29 -127 -205 -127 -217 0
-6 -4 -11 -8 -11 -4 0 -15 -15 -23 -32 -9 -18 -48 -88 -87 -155 -40 -68 -72
-125 -72 -128 0 -3 -5 -11 -10 -18 -18 -21 -250 -427 -250 -437 0 -6 -3 -10
-8 -10 -4 0 -22 -28 -40 -62 -18 -35 -64 -116 -103 -182 -38 -65 -69 -122 -69
-127 0 -5 -4 -9 -10 -9 -5 0 -10 -4 -10 -9 0 -13 -82 -155 -92 -159 -4 -2 -8
-8 -8 -13 0 -6 -22 -48 -50 -95 -27 -47 -50 -89 -50 -94 0 -6 -4 -10 -10 -10
-5 0 -10 -4 -10 -9 0 -6 -29 -60 -65 -121 -36 -61 -76 -130 -89 -153 -13 -23
-46 -82 -75 -130 -28 -49 -51 -93 -51 -98 0 -5 -4 -9 -9 -9 -5 0 -11 -8 -14
-17 -3 -10 -19 -40 -36 -68 -16 -27 -36 -61 -44 -75 -44 -79 -76 -135 -127
-220 -31 -52 -59 -102 -63 -110 -4 -8 -16 -29 -26 -46 -47 -76 -216 -372 -230
-401 -8 -18 -19 -33 -23 -33 -4 0 -8 -5 -8 -10 0 -6 -10 -27 -23 -48 -13 -20
-41 -68 -62 -107 -20 -38 -43 -77 -50 -85 -7 -8 -19 -28 -27 -45 -18 -37 -57
-107 -68 -120 -4 -5 -19 -30 -32 -55 -14 -25 -61 -106 -104 -180 -42 -74 -83
-144 -89 -155 -6 -11 -33 -58 -60 -105 -27 -47 -57 -97 -65 -112 -15 -27 -68
-120 -168 -292 -29 -49 -52 -93 -52 -97 0 -5 -4 -9 -10 -9 -5 0 -10 -4 -10 -9
0 -8 -107 -201 -140 -251 -5 -8 -26 -44 -46 -80 -21 -36 -93 -162 -162 -280
-69 -118 -134 -231 -144 -250 -71 -125 -83 -145 -90 -148 -4 -2 -8 -8 -8 -13
0 -7 -143 -260 -209 -369 -12 -19 -35 -63 -52 -98 -27 -53 -31 -71 -26 -116 7
-75 59 -165 95 -166 6 0 12 -5 12 -10 0 -6 3 -9 8 -8 4 1 20 -4 36 -11 27 -11
206 -12 206 -1 0 3 21 5 48 6 26 0 81 4 122 8 41 3 100 9 130 11 147 11 208
17 245 20 22 3 76 7 120 10 44 3 107 7 140 10 33 3 101 8 150 10 50 2 90 5 90
6 0 3 531 33 791 44 397 17 685 25 1114 31 459 6 325 6 830 0 419 -5 631 -10
925 -22 83 -3 184 -7 225 -8 42 -1 81 -5 87 -9 6 -4 14 -3 18 3 4 6 10 8 15 5
8 -5 68 -9 300 -20 88 -4 225 -12 345 -20 39 -3 102 -7 140 -10 63 -4 106 -7
295 -21 30 -2 82 -6 115 -9 33 -3 92 -7 130 -10 39 -3 88 -7 110 -10 22 -2 74
-6 115 -10 41 -3 98 -9 125 -11 110 -11 285 -13 285 -4 0 6 3 9 8 9 21 -4 34
4 69 39 54 53 66 79 69 149 4 74 5 71 -214 451 -84 144 -152 267 -152 272 0 6
-4 10 -10 10 -5 0 -10 7 -10 15 0 8 -4 15 -10 15 -5 0 -10 5 -10 10 0 9 -51
102 -107 195 -7 11 -16 27 -20 35 -7 16 -86 154 -103 180 -24 39 -77 131 -103
180 -16 30 -32 57 -36 60 -3 3 -15 23 -27 45 -23 44 -28 53 -131 230 -38 66
-73 127 -76 135 -4 8 -16 29 -27 45 -10 17 -25 41 -33 55 -57 102 -71 126 -77
135 -4 6 -19 30 -32 55 -14 25 -43 74 -63 110 -21 36 -47 82 -59 102 -12 20
-59 103 -106 184 -89 155 -122 213 -160 279 -12 22 -27 45 -32 52 -7 9 -3 24
13 50 35 58 193 307 202 318 12 15 116 178 125 195 4 8 36 59 71 113 65 99 84
113 115 82 8 -8 17 -15 20 -15 3 0 66 -41 140 -90 75 -49 140 -90 146 -90 5 0
10 -4 10 -9 0 -4 20 -19 45 -32 25 -13 45 -27 45 -31 0 -11 49 -2 66 13 13 11
15 26 10 88 -3 42 -8 105 -11 141 -5 78 -12 161 -20 250 -3 36 -8 94 -11 130
-5 65 -6 81 -18 240 -4 47 -9 101 -11 120 -3 19 -7 73 -10 120 -3 47 -7 108
-10 135 -10 105 -16 182 -20 237 -4 68 -21 98 -55 98 -39 0 -1372 -536 -1392
-560 -26 -32 -10 -58 66 -108 39 -26 73 -50 74 -54 2 -5 8 -8 13 -8 6 0 59
-32 119 -70 60 -39 116 -73 123 -76 18 -7 39 -52 28 -58 -5 -3 -42 -59 -82
-123 -40 -65 -77 -119 -81 -121 -4 -2 -8 -7 -8 -12 0 -19 -104 -170 -112 -162
-9 9 -108 179 -211 362 -17 30 -33 57 -36 60 -3 3 -16 23 -27 45 -31 57 -55
98 -189 329 -66 114 -129 223 -140 244 -11 20 -39 69 -62 107 -22 39 -50 86
-60 105 -11 19 -41 70 -67 113 -25 43 -46 81 -46 84 0 2 -14 25 -32 51 -18 26
-31 48 -30 50 1 1 -4 12 -12 25 -20 33 -105 180 -154 267 -14 25 -33 59 -43
75 -10 17 -31 52 -46 79 -16 27 -33 56 -38 65 -6 9 -23 39 -38 66 -15 28 -32
57 -37 65 -31 47 -130 223 -130 231 0 5 -5 9 -11 9 -5 0 -8 4 -4 9 3 5 1 12
-4 16 -6 3 -29 40 -53 83 -24 42 -48 86 -55 97 -7 11 -16 29 -21 40 -16 34
-72 86 -110 103 -59 26 -139 24 -192 -4z m130 -1209 c0 -8 3 -15 8 -15 4 0 12
-10 18 -23 19 -39 76 -141 94 -167 9 -14 20 -32 23 -40 4 -8 16 -28 27 -45 11
-16 23 -37 27 -45 6 -15 131 -232 172 -300 11 -19 24 -42 28 -50 3 -8 9 -17
12 -20 3 -3 14 -21 25 -40 42 -79 79 -146 90 -160 7 -8 18 -28 26 -45 8 -16
17 -32 20 -35 4 -3 21 -32 40 -65 67 -121 109 -194 132 -230 10 -16 24 -42 30
-57 7 -16 16 -28 20 -28 4 0 8 -6 8 -14 0 -7 9 -25 21 -40 11 -14 17 -26 12
-26 -4 0 -3 -4 3 -8 10 -7 23 -27 90 -149 15 -27 36 -64 48 -83 11 -19 28 -47
36 -61 22 -38 111 -193 140 -243 14 -24 40 -70 59 -103 91 -155 88 -149 66
-178 -29 -38 -105 -157 -105 -164 0 -4 -8 -16 -17 -27 -23 -26 -63 -82 -63
-88 0 -9 -64 -101 -72 -104 -4 -2 -8 -8 -8 -14 0 -6 -16 -32 -35 -58 -19 -26
-35 -51 -35 -55 0 -4 -9 -18 -19 -31 l-20 -25 -158 238 c-87 131 -161 243
-166 248 -30 41 -117 177 -117 184 0 5 -3 11 -7 13 -11 5 -53 66 -53 77 0 5
-3 11 -8 13 -4 2 -55 75 -112 163 -58 88 -108 162 -112 163 -5 2 -8 9 -8 16 0
6 -13 26 -29 44 -33 36 -70 42 -93 15 -16 -19 -178 -272 -178 -278 0 -2 -15
-26 -32 -52 -18 -26 -101 -156 -185 -288 -83 -132 -155 -245 -160 -251 -10
-12 -37 -57 -106 -169 -7 -11 -14 -22 -17 -25 -3 -3 -70 -106 -147 -230 -78
-124 -147 -230 -152 -237 -6 -7 -16 -24 -23 -38 -6 -14 -15 -25 -20 -25 -4 0
-8 -6 -8 -13 0 -8 -11 -27 -25 -43 -14 -16 -25 -33 -25 -37 0 -5 -10 -23 -22
-40 -13 -17 -27 -39 -33 -49 -38 -65 -71 -115 -82 -126 -7 -7 -13 -19 -13 -27
0 -7 -4 -15 -8 -17 -6 -2 -251 -382 -287 -445 -5 -10 -12 -20 -15 -23 -3 -3
-11 -17 -19 -32 -8 -16 -18 -28 -23 -28 -4 0 -8 -5 -8 -12 0 -6 -11 -26 -25
-44 -14 -18 -25 -36 -25 -40 0 -4 -11 -22 -25 -40 -14 -18 -25 -35 -25 -38 0
-2 -17 -31 -38 -63 -21 -32 -62 -95 -91 -141 l-54 -82 -46 -1 c-25 -1 -59 -2
-76 -4 -16 -1 -77 -6 -135 -10 -58 -3 -121 -8 -140 -10 -19 -2 -73 -6 -120
-10 -47 -3 -105 -8 -130 -11 -25 -3 -88 -6 -140 -7 -81 -2 -95 0 -98 15 -3 18
15 62 51 123 96 160 317 548 317 556 0 5 5 9 10 9 6 0 10 4 10 9 0 5 36 70 80
145 44 76 80 141 80 146 0 6 4 10 8 10 4 0 13 12 19 28 14 33 55 105 65 112 4
3 11 17 17 30 6 14 22 43 36 65 14 22 28 47 32 55 4 8 32 58 63 110 31 52 59
102 63 110 4 8 16 29 26 45 18 30 110 189 159 275 13 25 32 56 41 70 10 14 28
46 42 73 13 26 27 47 31 47 5 0 8 5 8 11 0 6 22 47 48 92 27 45 51 89 55 97 4
8 16 29 26 45 11 17 32 53 47 80 14 28 35 62 45 77 11 14 19 29 19 32 0 3 27
51 60 106 33 55 60 105 60 110 0 6 3 10 8 10 4 0 16 19 27 43 11 23 22 44 25
47 3 3 28 43 54 90 27 47 60 105 74 130 14 25 45 78 69 118 24 41 43 75 43 78
0 2 15 27 33 56 19 29 37 60 40 68 4 8 15 29 25 45 10 17 30 50 44 75 39 69
236 408 274 472 19 31 34 61 34 67 0 6 5 11 10 11 6 0 10 4 10 9 0 5 39 76 87
157 107 185 129 223 145 254 7 14 15 27 18 30 9 9 40 64 58 103 9 20 20 37 24
37 5 0 8 6 8 14 0 21 47 66 70 66 11 0 20 -7 20 -15z m230 -3010 c58 -91 113
-175 123 -186 9 -12 17 -25 17 -29 0 -4 11 -20 25 -36 14 -16 25 -32 25 -36 0
-4 22 -40 49 -80 75 -112 275 -419 296 -455 11 -18 23 -33 27 -33 4 0 8 -5 8
-10 0 -6 25 -48 56 -94 58 -88 84 -105 119 -82 11 7 69 92 130 187 60 96 113
176 117 177 4 2 8 8 8 12 0 9 120 201 131 210 3 3 12 16 19 30 7 14 36 61 65
105 29 44 82 127 119 185 36 58 69 110 74 115 4 6 18 27 31 48 21 35 41 48 41
28 0 -5 33 -65 73 -132 40 -68 87 -149 104 -179 46 -83 284 -495 353 -611 33
-55 60 -103 60 -105 0 -3 25 -45 55 -95 30 -50 55 -92 55 -94 0 -2 20 -38 45
-79 25 -42 45 -81 45 -86 0 -6 5 -10 10 -10 6 0 10 -6 10 -14 0 -7 7 -19 15
-26 8 -7 12 -16 9 -21 -3 -5 -2 -9 3 -9 4 0 19 -23 33 -51 13 -28 30 -55 37
-61 7 -6 13 -17 13 -25 0 -8 7 -21 16 -30 8 -9 14 -27 12 -42 -3 -26 -3 -26
-88 -24 -47 0 -105 4 -130 7 -25 3 -85 8 -135 11 -49 4 -110 9 -135 11 -55 4
-169 13 -270 19 -41 3 -111 8 -155 11 -44 3 -114 7 -155 9 -41 2 -122 6 -180
10 -212 11 -544 24 -800 30 -198 5 -1088 5 -1285 0 -88 -3 -229 -6 -312 -9
-167 -5 -167 -5 -114 51 12 12 21 25 21 29 0 3 12 23 28 43 15 20 32 43 37 52
6 9 22 34 37 55 90 130 108 157 108 165 0 5 4 9 9 9 5 0 24 25 42 55 18 30 37
55 41 55 4 0 8 4 8 10 0 9 65 106 80 120 3 3 23 32 44 64 21 33 43 64 48 70 5
6 72 103 150 216 78 113 174 252 214 310 40 58 113 163 161 234 48 70 100 141
115 157 47 49 68 32 188 -156z"/>
</g>
</svg>
