<svg xmlns="http://www.w3.org/2000/svg" width="841.372" height="166.1" viewBox="0 0 841.372 166.1"><defs><style>.a{fill:#fff;}</style></defs><path class="a" d="M13.59-130.162c-3.624,7.55-1.51,12.684,6.04,16.006l16.61,6.946c8.456,3.322,10.268,2.114,15.4-4.832,5.738-7.55,13.892-11.174,25.066-11.174,15.4,0,23.254,7.55,23.254,22.348v6.644c-6.342-.3-13.59-.6-21.442-.6C27.784-94.828,8.154-82.446,8.154-45.3c0,17.214,5.134,29.6,15.1,37.75S51.038,4.53,77.312,4.53q38.958,0,57.078-8.154c8.758-3.624,11.174-6.946,11.174-17.516V-97.848c0-42.582-22.348-63.722-67.346-63.722C46.206-161.57,24.764-151,13.59-130.162ZM99.962-34.126c0,.906-.6,1.812-2.114,2.114C92.714-31.106,84.56-30.8,73.99-30.8c-15.7,0-20.234-5.134-20.234-14.8,0-9.362,4.832-14.5,20.838-14.5,3.02,0,7.55,0,13.59.3s9.966.3,11.778.3ZM276.632-157.04c-8.456,0-11.174,2.718-11.174,11.174V-42.28a3.266,3.266,0,0,1-2.114,3.322,85.825,85.825,0,0,1-19.932,2.114c-17.214,0-25.67-7.55-25.67-22.65v-86.372c0-8.456-2.718-11.174-11.174-11.174H183.314c-8.456,0-11.174,2.718-11.174,11.174v87.882q0,62.514,65.232,62.514c23.254,0,44.092-3.624,61.91-10.872,9.664-3.926,11.778-7.55,11.778-17.516V-145.866c0-8.456-2.718-11.174-10.872-11.174Zm134.088-4.53c-25.066.906-44.394,3.926-57.984,9.362-9.664,3.926-12.08,7.55-12.08,17.516V-11.174C340.656-2.718,343.374,0,351.83,0h23.556c8.154,0,10.872-2.718,10.872-11.174v-105.4a2,2,0,0,1,1.812-2.114,92.093,92.093,0,0,1,21.442-2.114h11.174c8.154,0,11.174-2.718,11.174-10.872V-150.4c0-8.456-3.02-11.174-11.174-11.174ZM442.43-58.89c0,39.864,25.066,63.42,71.876,63.42,47.112,0,72.178-23.254,72.178-63.42V-97.848c0-40.166-25.066-63.722-72.178-63.722-46.81,0-71.876,23.556-71.876,63.722Zm98.452.3c0,15.1-8.758,22.65-26.576,22.65q-26.274,0-26.274-22.65V-98.452q0-22.65,26.274-22.65c17.818,0,26.576,7.55,26.576,22.65ZM681.916-161.57c-25.066.906-44.394,3.926-57.984,9.362-9.664,3.926-12.08,7.55-12.08,17.516V-11.174C611.852-2.718,614.57,0,623.026,0h23.556c8.154,0,10.872-2.718,10.872-11.174v-105.4a2,2,0,0,1,1.812-2.114,92.092,92.092,0,0,1,21.442-2.114h11.174c8.154,0,11.174-2.718,11.174-10.872V-150.4c0-8.456-3.02-11.174-11.174-11.174Zm35.636,31.408c-3.624,7.55-1.51,12.684,6.04,16.006l16.61,6.946c8.456,3.322,10.268,2.114,15.4-4.832,5.738-7.55,13.892-11.174,25.066-11.174,15.4,0,23.254,7.55,23.254,22.348v6.644c-6.342-.3-13.59-.6-21.442-.6-50.736,0-70.366,12.382-70.366,49.528,0,17.214,5.134,29.6,15.1,37.75S755,4.53,781.274,4.53q38.958,0,57.078-8.154c8.758-3.624,11.174-6.946,11.174-17.516V-97.848c0-42.582-22.348-63.722-67.346-63.722C750.168-161.57,728.726-151,717.552-130.162Zm86.372,96.036c0,.906-.6,1.812-2.114,2.114-5.134.906-13.288,1.208-23.858,1.208-15.7,0-20.234-5.134-20.234-14.8,0-9.362,4.832-14.5,20.838-14.5,3.02,0,7.55,0,13.59.3s9.966.3,11.778.3Z" transform="translate(-8.154 161.57)"/></svg>