<svg xmlns="http://www.w3.org/2000/svg" viewBox="0 0 179.6 47.33"><defs><style>.cls-1{fill:#555de4;}</style></defs><g id="Assets"><path class="cls-1" d="M81.94,21.9V47h-5.6V43.8a9.3,9.3,0,0,1-3.52,2.61,11.36,11.36,0,0,1-4.56.92,10.9,10.9,0,0,1-7.92-2.8c-1.93-1.86-2.89-4.63-2.89-8.29V21.9h5.88V35.44a7.26,7.26,0,0,0,1.52,5.05,5.61,5.61,0,0,0,4.35,1.67,6.6,6.6,0,0,0,5-1.95,7.88,7.88,0,0,0,1.85-5.62V21.9Z"/><path class="cls-1" d="M104.17,21.62v5.59a7.85,7.85,0,0,0-1.36-.14,7.1,7.1,0,0,0-5.36,2,7.94,7.94,0,0,0-1.93,5.76V47H89.65V21.9h5.59v3.67Q97.78,21.61,104.17,21.62Z"/><path class="cls-1" d="M113.33,45.68a12,12,0,0,1-4.77-4.58,13,13,0,0,1-1.71-6.65,12.86,12.86,0,0,1,1.71-6.63,12.17,12.17,0,0,1,4.77-4.56,15.29,15.29,0,0,1,13.78,0,12.17,12.17,0,0,1,4.77,4.56,12.86,12.86,0,0,1,1.71,6.63,13,13,0,0,1-1.71,6.65,12,12,0,0,1-4.77,4.58,15.21,15.21,0,0,1-13.78,0Zm12.22-5.54a7.79,7.79,0,0,0,2.12-5.69,7.79,7.79,0,0,0-2.12-5.69,7.69,7.69,0,0,0-10.69,0,7.86,7.86,0,0,0-2.09,5.69,7.86,7.86,0,0,0,2.09,5.69,7.69,7.69,0,0,0,10.69,0Z"/><path class="cls-1" d="M153.75,21.62v5.59a7.75,7.75,0,0,0-1.36-.14,7.11,7.11,0,0,0-5.36,2,8,8,0,0,0-1.92,5.76V47h-5.88V21.9h5.59v3.67Q147.37,21.61,153.75,21.62Z"/><path class="cls-1" d="M176.67,24.27c2,1.77,2.93,4.45,2.93,8V47h-5.54V43.94A6.84,6.84,0,0,1,171,46.46a12,12,0,0,1-4.82.87,11.66,11.66,0,0,1-4.93-1A7.59,7.59,0,0,1,158,43.68a6.75,6.75,0,0,1-1.15-3.87,6.65,6.65,0,0,1,2.51-5.43c1.68-1.36,4.32-2.05,7.92-2.05h6.49V32a5.13,5.13,0,0,0-1.58-4,6.79,6.79,0,0,0-4.67-1.41,13.74,13.74,0,0,0-4.16.65A10.19,10.19,0,0,0,159.86,29l-2.3-4.28a14.3,14.3,0,0,1,4.75-2.3,21.18,21.18,0,0,1,5.87-.8Q173.73,21.62,176.67,24.27ZM171.31,42a5.51,5.51,0,0,0,2.42-2.89V36.24h-6.06q-5.08,0-5.08,3.33a3,3,0,0,0,1.27,2.54,5.77,5.77,0,0,0,3.52.94A7.64,7.64,0,0,0,171.31,42Z"/><path class="cls-1" d="M81.94,21.9V47h-5.6V43.8a9.3,9.3,0,0,1-3.52,2.61,11.36,11.36,0,0,1-4.56.92,10.9,10.9,0,0,1-7.92-2.8c-1.93-1.86-2.89-4.63-2.89-8.29V21.9h5.88V35.44a7.26,7.26,0,0,0,1.52,5.05,5.61,5.61,0,0,0,4.35,1.67,6.6,6.6,0,0,0,5-1.95,7.88,7.88,0,0,0,1.85-5.62V21.9Z"/><path class="cls-1" d="M104.17,21.62v5.59a7.85,7.85,0,0,0-1.36-.14,7.1,7.1,0,0,0-5.36,2,7.94,7.94,0,0,0-1.93,5.76V47H89.65V21.9h5.59v3.67Q97.78,21.61,104.17,21.62Z"/><path class="cls-1" d="M113.33,45.68a12,12,0,0,1-4.77-4.58,13,13,0,0,1-1.71-6.65,12.86,12.86,0,0,1,1.71-6.63,12.17,12.17,0,0,1,4.77-4.56,15.29,15.29,0,0,1,13.78,0,12.17,12.17,0,0,1,4.77,4.56,12.86,12.86,0,0,1,1.71,6.63,13,13,0,0,1-1.71,6.65,12,12,0,0,1-4.77,4.58,15.21,15.21,0,0,1-13.78,0Zm12.22-5.54a7.79,7.79,0,0,0,2.12-5.69,7.79,7.79,0,0,0-2.12-5.69,7.69,7.69,0,0,0-10.69,0,7.86,7.86,0,0,0-2.09,5.69,7.86,7.86,0,0,0,2.09,5.69,7.69,7.69,0,0,0,10.69,0Z"/><path class="cls-1" d="M153.75,21.62v5.59a7.75,7.75,0,0,0-1.36-.14,7.11,7.11,0,0,0-5.36,2,8,8,0,0,0-1.92,5.76V47h-5.88V21.9h5.59v3.67Q147.37,21.61,153.75,21.62Z"/><path class="cls-1" d="M176.67,24.27c2,1.77,2.93,4.45,2.93,8V47h-5.54V43.94A6.84,6.84,0,0,1,171,46.46a12,12,0,0,1-4.82.87,11.66,11.66,0,0,1-4.93-1A7.59,7.59,0,0,1,158,43.68a6.75,6.75,0,0,1-1.15-3.87,6.65,6.65,0,0,1,2.51-5.43c1.68-1.36,4.32-2.05,7.92-2.05h6.49V32a5.13,5.13,0,0,0-1.58-4,6.79,6.79,0,0,0-4.67-1.41,13.74,13.74,0,0,0-4.16.65A10.19,10.19,0,0,0,159.86,29l-2.3-4.28a14.3,14.3,0,0,1,4.75-2.3,21.18,21.18,0,0,1,5.87-.8Q173.73,21.62,176.67,24.27ZM171.31,42a5.51,5.51,0,0,0,2.42-2.89V36.24h-6.06q-5.08,0-5.08,3.33a3,3,0,0,0,1.27,2.54,5.77,5.77,0,0,0,3.52.94A7.64,7.64,0,0,0,171.31,42Z"/><path class="cls-1" d="M53.57,44.63,42.26,25l3.4-5.32a.2.2,0,0,1,.27-.07l3,1.94a.39.39,0,0,0,.6-.37l-.86-10.51a.39.39,0,0,0-.54-.33l-9.61,3.84a.39.39,0,0,0-.07.7l2.91,1.85a.2.2,0,0,1,.06.27l-2,3.1L28.26.79a1.59,1.59,0,0,0-2.74,0L.21,44.63A1.59,1.59,0,0,0,1.58,47c.6,0,1.2-.08,1.81-.14a257.36,257.36,0,0,1,46.86,0l2,.15A1.58,1.58,0,0,0,53.57,44.63ZM7.67,41.74l19-32.87a.27.27,0,0,1,.48,0l9.23,16-2.8,4.28L28,20.76a.4.4,0,0,0-.66,0L14,41.68c-2,.13-4.07.28-6.11.48A.28.28,0,0,1,7.67,41.74Zm38.2.42h0a198.51,198.51,0,0,0-26.93-.74l8.42-12.17a.39.39,0,0,1,.66,0l5.52,8.45a.39.39,0,0,0,.66,0l5-7.88,6.89,11.93A.28.28,0,0,1,45.87,42.16Z"/></g></svg>